<svg viewBox="0 0 24 24" fill="none" xmlns="http://www.w3.org/2000/svg">
  <defs>
    <linearGradient id="kabaddiGradient" x1="0%" y1="0%" x2="100%" y2="100%">
      <stop offset="0%" style="stop-color:#3b82f6;stop-opacity:1" />
      <stop offset="100%" style="stop-color:#1d4ed8;stop-opacity:1" />
    </linearGradient>
  </defs>
  
  <!-- Kabaddi Players -->
  <g fill="url(#kabaddiGradient)">
    <!-- Player 1 - Raider -->
    <circle cx="8" cy="6" r="1.5" />
    <path d="M6 8.5 C6 8.5 8 8 10 8.5 L10 12 C10 12.5 9.5 13 9 13 L7 13 C6.5 13 6 12.5 6 12 Z" />
    <path d="M7 13 L6.5 16 M9 13 L9.5 16" stroke="url(#kabaddiGradient)" stroke-width="1.5" stroke-linecap="round"/>
    <path d="M6 9.5 L4 10.5 M10 9.5 L12 10.5" stroke="url(#kabaddiGradient)" stroke-width="1.5" stroke-linecap="round"/>
    
    <!-- Player 2 - Defender -->
    <circle cx="16" cy="6" r="1.5" />
    <path d="M14 8.5 C14 8.5 16 8 18 8.5 L18 12 C18 12.5 17.5 13 17 13 L15 13 C14.5 13 14 12.5 14 12 Z" />
    <path d="M15 13 L14.5 16 M17 13 L17.5 16" stroke="url(#kabaddiGradient)" stroke-width="1.5" stroke-linecap="round"/>
    <path d="M14 9.5 L12 10.5 M18 9.5 L20 10.5" stroke="url(#kabaddiGradient)" stroke-width="1.5" stroke-linecap="round"/>
  </g>
  
  <!-- Court lines -->
  <path d="M2 18 L22 18 M2 20 L22 20 M12 16 L12 22" stroke="url(#kabaddiGradient)" stroke-width="1" opacity="0.6"/>
  
  <!-- Trophy/Achievement element -->
  <path d="M12 2 L13 4 L15 4 L13.5 5.5 L14 7.5 L12 6.5 L10 7.5 L10.5 5.5 L9 4 L11 4 Z" fill="url(#kabaddiGradient)"/>
</svg>
